<?xml version="1.0" encoding="utf-8"?>
<!-- Generator: Adobe Illustrator 19.1.0, SVG Export Plug-In . SVG Version: 6.00 Build 0)  -->
<svg version="1.1" id="Layer_1" xmlns="http://www.w3.org/2000/svg" xmlns:xlink="http://www.w3.org/1999/xlink" x="0px" y="0px"
	 viewBox="0 0 900 249.1" style="enable-background:new 0 0 900 249.1;" xml:space="preserve">
<style type="text/css">
	.st0{fill:#FFFFFF;}
	.st1{fill:#FFB819;}
</style>
<g>
	<g>
		<g>
			<path class="st0" d="M17.6,227.3c2.4,1.2,6.1,2.5,9.9,2.5c4.1,0,6.3-1.7,6.3-4.3c0-2.5-1.9-3.9-6.7-5.6
				c-6.6-2.3-10.9-5.9-10.9-11.7c0-6.8,5.7-12,15-12c4.5,0,7.8,0.9,10.1,2l-2,7.2c-1.6-0.8-4.4-1.9-8.3-1.9c-3.9,0-5.8,1.8-5.8,3.8
				c0,2.5,2.2,3.7,7.4,5.6c7,2.6,10.3,6.2,10.3,11.8c0,6.7-5.1,12.4-16,12.4c-4.5,0-9-1.2-11.2-2.5L17.6,227.3z"/>
			<path class="st0" d="M73.3,229.5c0,2.8,0.1,5.4,0.4,7h-8.1l-0.5-2.9h-0.2c-1.9,2.3-4.8,3.5-8.2,3.5c-5.8,0-9.3-4.2-9.3-8.8
				c0-7.5,6.7-11.1,16.9-11v-0.4c0-1.5-0.8-3.7-5.2-3.7c-2.9,0-6.1,1-7.9,2.2l-1.7-5.8c2-1.1,5.9-2.5,11.2-2.5
				c9.6,0,12.7,5.7,12.7,12.4V229.5z M64.6,222.9c-4.7-0.1-8.4,1.1-8.4,4.5c0,2.3,1.5,3.4,3.5,3.4c2.2,0,4.1-1.5,4.7-3.3
				c0.1-0.5,0.2-1,0.2-1.5V222.9z"/>
			<path class="st0" d="M86.3,207.7l3.9,13.4c0.7,2.4,1.2,4.7,1.6,7H92c0.5-2.4,0.9-4.5,1.6-7l3.7-13.4h9.4L96,236.5h-8.9
				l-10.5-28.8H86.3z"/>
			<path class="st0" d="M116.9,225c0.3,3.7,3.9,5.5,8.1,5.5c3.1,0,5.5-0.4,7.9-1.2l1.2,6.1c-2.9,1.2-6.5,1.8-10.4,1.8
				c-9.8,0-15.4-5.7-15.4-14.7c0-7.3,4.5-15.4,14.5-15.4c9.3,0,12.8,7.2,12.8,14.4c0,1.5-0.2,2.9-0.3,3.5H116.9z M127.4,218.9
				c0-2.2-0.9-5.8-5.1-5.8c-3.8,0-5.3,3.4-5.5,5.8H127.4z"/>
			<path class="st0" d="M152.9,216.9c0-3.6-0.1-6.7-0.2-9.2h7.5l0.4,3.9h0.2c1.2-1.8,3.8-4.5,8.7-4.5c3.7,0,6.6,1.9,7.9,4.9h0.1
				c1.1-1.5,2.4-2.6,3.7-3.5c1.6-0.9,3.4-1.4,5.5-1.4c5.5,0,9.7,3.9,9.7,12.5v16.9h-8.7v-15.7c0-4.2-1.4-6.6-4.2-6.6
				c-2.1,0-3.5,1.4-4.1,3.1c-0.2,0.6-0.4,1.6-0.4,2.3v16.8h-8.7v-16.1c0-3.6-1.3-6.1-4.1-6.1c-2.3,0-3.6,1.8-4.2,3.2
				c-0.3,0.7-0.4,1.5-0.4,2.2v16.8h-8.7V216.9z"/>
			<path class="st0" d="M232,221.8c0,10.5-7.5,15.4-15.2,15.4c-8.4,0-14.9-5.5-14.9-14.8c0-9.3,6.1-15.3,15.4-15.3
				C226.1,207.1,232,213.2,232,221.8z M211.2,222.1c0,4.9,2.1,8.7,5.9,8.7c3.5,0,5.7-3.5,5.7-8.7c0-4.3-1.6-8.6-5.7-8.6
				C212.7,213.5,211.2,217.9,211.2,222.1z"/>
			<path class="st0" d="M237.5,216.9c0-3.6-0.1-6.7-0.2-9.2h7.8l0.4,3.9h0.2c1.2-1.8,4.1-4.6,8.9-4.6c5.9,0,10.3,3.9,10.3,12.4v17.1
				h-9v-15.9c0-3.7-1.3-6.2-4.5-6.2c-2.5,0-3.9,1.7-4.5,3.4c-0.2,0.6-0.4,1.4-0.4,2.2v16.6h-9V216.9z"/>
			<path class="st0" d="M278.9,225c0.3,3.7,3.9,5.5,8.1,5.5c3.1,0,5.5-0.4,7.9-1.2l1.2,6.1c-2.9,1.2-6.5,1.8-10.4,1.8
				c-9.8,0-15.4-5.7-15.4-14.7c0-7.3,4.5-15.4,14.5-15.4c9.3,0,12.8,7.2,12.8,14.4c0,1.5-0.2,2.9-0.3,3.5H278.9z M289.4,218.9
				c0-2.2-0.9-5.8-5.1-5.8c-3.8,0-5.3,3.4-5.5,5.8H289.4z"/>
			<path class="st0" d="M309.5,207.7l4.3,14.1c0.5,1.7,1.1,3.8,1.4,5.4h0.2c0.4-1.5,0.9-3.7,1.3-5.4l3.5-14.1h9.6l-6.7,19
				c-4.1,11.4-6.9,16-10.1,18.9c-3.1,2.7-6.4,3.7-8.7,3.9l-1.9-7.6c1.1-0.2,2.5-0.7,3.9-1.5c1.4-0.7,2.8-2.1,3.7-3.6
				c0.3-0.4,0.5-0.9,0.5-1.3c0-0.3-0.1-0.8-0.4-1.5l-10.5-26.3H309.5z"/>
			<path class="st0" d="M338.1,237.2c-3,0-5.2-2.3-5.2-5.4c0-3.2,2.2-5.5,5.3-5.5c3.1,0,5.2,2.2,5.2,5.5
				C343.4,234.9,341.3,237.2,338.1,237.2L338.1,237.2z"/>
		</g>
		<g>
			<path class="st0" d="M363.4,196.8h9V229h15.8v7.5h-24.8V196.8z"/>
			<path class="st0" d="M403.6,199.7c0,2.5-1.9,4.5-4.8,4.5c-2.8,0-4.7-2-4.6-4.5c-0.1-2.6,1.8-4.5,4.7-4.5
				C401.7,195.2,403.5,197.1,403.6,199.7z M394.3,236.5v-28.8h8.9v21.7v7H394.3z"/>
			<path class="st0" d="M418.3,207.7l3.9,13.4c0.7,2.4,1.2,4.7,1.6,7h0.2c0.5-2.4,0.9-4.5,1.6-7l3.7-13.4h9.4L428,236.5h-9
				l-10.5-28.8H418.3z"/>
			<path class="st0" d="M448.9,225c0.3,3.7,3.9,5.5,8.1,5.5c3.1,0,5.5-0.4,8-1.2l1.2,6.1c-2.9,1.2-6.5,1.8-10.4,1.8
				c-9.8,0-15.4-5.7-15.4-14.7c0-7.3,4.5-15.4,14.5-15.4c9.3,0,12.8,7.2,12.8,14.4c0,1.5-0.2,2.9-0.3,3.5H448.9z M459.4,218.9
				c0-2.2-0.9-5.8-5.1-5.8c-3.8,0-5.3,3.4-5.5,5.8H459.4z"/>
			<path class="st0" d="M485,194.7h8.9v16.4h0.1c1.7-2.5,4.7-4.1,8.7-4.1c6.9,0,11.9,5.7,11.9,14.5c0,10.4-6.6,15.5-13.2,15.5
				c-3.4,0-6.6-1.2-8.7-4.6h-0.1l-0.4,4h-7.6c0.1-1.9,0.2-5.4,0.2-8.6V194.7z M493.9,224.3c0,0.6,0.1,1.1,0.2,1.6
				c0.6,2.4,2.6,4.2,5.2,4.2c3.8,0,6.2-2.9,6.2-8.1c0-4.5-2-8-6.2-8c-2.4,0-4.7,1.8-5.2,4.4c-0.1,0.5-0.2,1.1-0.2,1.7V224.3z"/>
			<path class="st0" d="M527.2,225c0.3,3.7,3.9,5.5,8.1,5.5c3.1,0,5.5-0.4,7.9-1.2l1.2,6.1c-2.9,1.2-6.5,1.8-10.4,1.8
				c-9.8,0-15.4-5.7-15.4-14.7c0-7.3,4.5-15.4,14.5-15.4c9.3,0,12.8,7.2,12.8,14.4c0,1.5-0.2,2.9-0.3,3.5H527.2z M537.8,218.9
				c0-2.2-0.9-5.8-5.1-5.8c-3.8,0-5.3,3.4-5.5,5.8H537.8z"/>
			<path class="st0" d="M562.6,199.9v7.8h6.4v6.6h-6.4v10.4c0,3.5,0.8,5.1,3.5,5.1c1.2,0,1.8-0.1,2.7-0.2l0.1,6.8
				c-1.2,0.5-3.3,0.8-5.8,0.8c-2.9,0-5.3-1.1-6.7-2.5c-1.7-1.7-2.5-4.5-2.5-8.5v-11.8H550v-6.6h3.8v-5.4L562.6,199.9z"/>
			<path class="st0" d="M585.4,199.9v7.8h6.4v6.6h-6.4v10.4c0,3.5,0.8,5.1,3.5,5.1c1.2,0,1.8-0.1,2.7-0.2l0.1,6.8
				c-1.2,0.5-3.3,0.8-5.8,0.8c-2.9,0-5.3-1.1-6.7-2.5c-1.6-1.7-2.5-4.5-2.5-8.5v-11.8h-3.8v-6.6h3.8v-5.4L585.4,199.9z"/>
			<path class="st0" d="M605,225c0.3,3.7,3.9,5.5,8.1,5.5c3.1,0,5.5-0.4,7.9-1.2l1.2,6.1c-2.9,1.2-6.5,1.8-10.4,1.8
				c-9.8,0-15.4-5.7-15.4-14.7c0-7.3,4.5-15.4,14.5-15.4c9.3,0,12.8,7.2,12.8,14.4c0,1.5-0.2,2.9-0.3,3.5H605z M615.6,218.9
				c0-2.2-0.9-5.8-5.1-5.8c-3.8,0-5.3,3.4-5.5,5.8H615.6z"/>
			<path class="st0" d="M630.4,217.2c0-4.2-0.1-7-0.2-9.5h7.7l0.3,5.3h0.2c1.5-4.2,5-6,7.8-6c0.8,0,1.2,0,1.9,0.1v8.5
				c-0.6-0.2-1.4-0.3-2.4-0.3c-3.3,0-5.5,1.8-6.1,4.5c-0.1,0.6-0.2,1.3-0.2,2v14.6h-9V217.2z"/>
			<path class="st0" d="M657.3,237.2c-3,0-5.2-2.3-5.2-5.4c0-3.2,2.2-5.5,5.3-5.5c3.1,0,5.2,2.2,5.2,5.5
				C662.6,234.9,660.5,237.2,657.3,237.2L657.3,237.2z"/>
		</g>
	</g>
	<g>
		<g>
			<path class="st0" d="M521.1,112.9c0-21-8.9-39.4-39.2-39.4c-15.5,0-27.9,4.4-34.6,8.2l4.9,16.8c6.1-3.9,15.9-7.1,25.2-7.1
				c15.3,0,17.9,8.7,17.9,14.3v1.3c-33.4-0.1-54.6,11.5-54.6,35.1c0,14.4,10.8,27.9,29.5,27.9c11.5,0,21.1-4.6,26.9-12h0.6
				c0,0,3.8,16,24.9,9.9c-1.1-6.7-1.5-13.7-1.5-22.3V112.9z M496.1,135c0,1.7-0.2,3.5-0.6,5c-1.9,6.4-8.6,11.8-16.9,11.8
				c-6.9,0-12.4-3.9-12.4-12.2c0-12.7,14-16.2,29.9-16.1V135z"/>
			<path class="st0" d="M0,45c0,0,21.9,89.5,25.3,104.1c4.1,17,11.4,23.2,32.6,19l13.6-55.5c3.5-13.8,5.8-23.6,8-37.6h0.4
				c1.6,14.2,3.8,23.9,6.6,37.7c0,0,5.6,25.2,8.4,38.4c2.9,13.2,10.8,21.6,31.5,17L159,45h-26.3l-11.1,53.2
				c-3,15.5-5.7,27.6-7.8,41.8h-0.4c-1.9-14-4.3-25.7-7.3-40.7L94.6,45H67.2L54.9,97.8c-3.5,16.1-6.8,29-8.9,42.7h-0.4
				c-2.1-12.9-5-29.2-8.1-44.7c0,0-7.3-37.8-9.9-50.8H0z"/>
			<path class="st0" d="M233.6,112.9c0-21-8.9-39.4-39.2-39.4c-15.5,0-27.9,4.4-34.6,8.2l4.9,16.8c6.2-3.9,15.9-7.1,25.2-7.1
				c15.4,0,17.9,8.7,17.9,14.3v1.3c-33.5-0.1-54.6,11.5-54.6,35.1c0,14.4,10.8,27.9,29.5,27.9c11.5,0,21.1-4.6,26.9-12h0.6
				c0,0,3.8,16,24.9,9.9c-1.1-6.7-1.5-13.7-1.5-22.3V112.9z M208.6,135c0,1.7-0.1,3.5-0.6,5c-1.9,6.4-8.6,11.8-16.9,11.8
				c-6.9,0-12.4-3.9-12.4-12.2c0-12.7,14-16.2,29.9-16.1V135z"/>
			<polygon class="st0" points="275.2,141.9 275.2,45 250.2,45 250.2,168.1 275.2,168.1 			"/>
			<path class="st0" d="M602.2,45c0,11.8,0,90.8,0,90.8c0,12.5,2.4,21.3,7.4,26.6c4.4,4.7,11.7,7.7,20.3,7.7
				c7.4,0,14.7-1.4,18.1-2.7l-0.3-19.5c-2.5,0.6-5.5,1.1-9.5,1.1c-8.5,0-11.4-5.5-11.4-16.7V97.6h21.8V74.1h-21.8V45H602.2z"/>
			<path class="st0" d="M537.7,75.6v92.5h25.8v-47.3c0-2.6,0.2-4.8,0.6-6.8c1.9-9.9,9.5-16.3,20.4-16.3c3,0,5.1,0.3,7.4,0.7V74.1
				c-1.9-0.4-3.3-0.6-5.7-0.6c-9.6,0-20.6,6.2-25.2,19.5h-0.7V75.6H537.7z"/>
			<path class="st0" d="M292.7,75.6v92.5h25.1v-54.2c0-2.5,0.3-5.2,1.2-7.6c2.1-5.5,7.2-11.8,15.3-11.8c10.1,0,14.9,8.6,14.9,20.9
				v52.7h25.1v-54.9c0-2.4,0.3-5.3,1-7.5c2.1-6.2,7.5-11.3,15.1-11.3c10.3,0,15.2,8.4,15.2,23c0,0,0,39.1,0,50.7h25.1v-54.5
				c0-28.7-14.6-40.1-31-40.1c-7.3,0-13,1.8-18.2,5c-4.4,2.7-8.3,6.5-11.7,11.5h-0.4c-4-10-13.3-16.5-25.5-16.5
				c-15.6,0-22.7,7.9-26.9,14.7h-0.4V75.6H292.7z"/>
		</g>
		<g>
			<g>
				<g>
					<path class="st1" d="M783.8,71.9c5,0,9.1-2.6,9.6-5.9l4.9-55.5c0-5.5-6.4-10-14.5-10c-8.1,0-14.5,4.5-14.5,10l4.9,55.5
						C774.7,69.3,778.8,71.9,783.8,71.9L783.8,71.9z"/>
					<path class="st1" d="M753.8,89.2c2.5-4.3,2.3-9.1-0.3-11.3l-45.6-32c-4.7-2.7-11.9,0.6-15.9,7.6c-4,7-3.3,14.8,1.4,17.5
						l50.5,23.5C747,95.7,751.3,93.5,753.8,89.2L753.8,89.2z"/>
					<path class="st1" d="M813.8,89.2c2.5,4.3,6.8,6.5,9.9,5.4L874.2,71c4.8-2.7,5.4-10.5,1.4-17.5c-4.1-7-11.2-10.3-15.9-7.6
						l-45.6,32C811.5,80.1,811.3,84.9,813.8,89.2L813.8,89.2z"/>
				</g>
				<g>
					<path class="st1" d="M783.8,141.2c5,0,9.1,2.6,9.6,5.9l4.9,55.5c0,5.5-6.4,10-14.5,10c-8.1,0-14.5-4.5-14.5-10l4.9-55.5
						C774.7,143.7,778.8,141.2,783.8,141.2L783.8,141.2z"/>
					<path class="st1" d="M813.8,123.8c2.5-4.3,6.8-6.5,9.9-5.4l50.5,23.5c4.8,2.8,5.4,10.6,1.4,17.6c-4.1,7-11.2,10.3-15.9,7.6
						l-45.6-32C811.5,133,811.3,128.1,813.8,123.8L813.8,123.8z"/>
					<path class="st1" d="M753.8,123.8c2.5,4.3,2.3,9.1-0.3,11.3l-45.6,32c-4.7,2.7-11.9-0.6-15.9-7.6c-4-7-3.3-14.8,1.4-17.6
						l50.5-23.5C747,117.3,751.3,119.5,753.8,123.8L753.8,123.8z"/>
				</g>
			</g>
			<g>
				<path class="st1" d="M892,155.8c4.5,0,8,3.5,8,7.9c0,4.5-3.5,8-8,8c-4.5,0-8.1-3.5-8.1-8C883.8,159.3,887.4,155.8,892,155.8
					L892,155.8z M891.9,157.2c-3.6,0-6.3,2.9-6.3,6.5c0,3.7,2.7,6.6,6.4,6.6c3.6,0.1,6.2-2.9,6.2-6.5
					C898.2,160.1,895.6,157.2,891.9,157.2L891.9,157.2z M890.5,168H889v-8.3c0.8-0.1,1.7-0.2,2.9-0.2c1.4,0,2.1,0.2,2.6,0.6
					c0.5,0.3,0.8,1,0.8,1.7c0,1-0.7,1.7-1.6,2v0.1c0.7,0.3,1.1,0.9,1.4,2c0.2,1.3,0.4,1.8,0.6,2.1h-1.6c-0.2-0.3-0.4-1-0.6-2.2
					c-0.2-0.9-0.7-1.3-1.9-1.3h-1V168z M890.5,163.4h1c1.1,0,2.1-0.4,2.1-1.3c0-0.8-0.5-1.3-2-1.3c-0.6,0-0.9,0.1-1.2,0.1V163.4z"/>
			</g>
		</g>
	</g>
</g>
</svg>
