<?xml version="1.0" encoding="utf-8"?>
<!-- Generator: Adobe Illustrator 19.1.0, SVG Export Plug-In . SVG Version: 6.00 Build 0)  -->
<svg version="1.1" id="Layer_1" xmlns="http://www.w3.org/2000/svg" xmlns:xlink="http://www.w3.org/1999/xlink" x="0px" y="0px"
	 viewBox="442 -9 93.9 90" style="enable-background:new 442 -9 93.9 90;" xml:space="preserve">
<style type="text/css">
	.st0{fill:#FFB819;}
</style>
<g>
	<g>
		<g>
			<g>
				<g>
					<path class="st0" d="M486.6,21.3c2.1,0,3.8-1.1,4.1-2.5l2.1-23.5c0-2.3-2.7-4.2-6.2-4.2c-3.4,0-6.1,1.9-6.1,4.2l2.1,23.5
						C482.8,20.2,484.5,21.3,486.6,21.3L486.6,21.3z"/>
					<path class="st0" d="M473.9,28.7c1.1-1.8,1-3.9-0.1-4.8l-19.4-13.6c-2-1.2-5,0.2-6.7,3.2s-1.4,6.3,0.6,7.4l21.4,10
						C471,31.4,472.8,30.5,473.9,28.7L473.9,28.7z"/>
					<path class="st0" d="M499.3,28.6c1.1,1.8,2.9,2.8,4.2,2.3l21.4-10c2-1.2,2.3-4.5,0.6-7.4c-1.7-3-4.7-4.4-6.7-3.2l-19.4,13.6
						C498.4,24.8,498.3,26.8,499.3,28.6L499.3,28.6z"/>
				</g>
				<g>
					<path class="st0" d="M486.6,50.7c2.1,0,3.8,1.1,4.1,2.5l2.1,23.5c0,2.3-2.7,4.2-6.2,4.2c-3.4,0-6.1-1.9-6.1-4.2l2.1-23.5
						C482.8,51.8,484.5,50.7,486.6,50.7L486.6,50.7z"/>
					<path class="st0" d="M499.3,43.4c1.1-1.8,2.9-2.8,4.2-2.3l21.4,10c2,1.2,2.3,4.5,0.6,7.5c-1.7,3-4.7,4.4-6.7,3.2l-19.4-13.6
						C498.4,47.2,498.3,45.2,499.3,43.4L499.3,43.4z"/>
					<path class="st0" d="M473.9,43.4c1.1,1.8,1,3.9-0.1,4.8l-19.4,13.6c-2,1.2-5-0.2-6.7-3.2s-1.4-6.3,0.6-7.5l21.4-10
						C471,40.6,472.8,41.5,473.9,43.4L473.9,43.4z"/>
				</g>
			</g>
			<g>
				<path class="st0" d="M532.5,56.9c1.9,0,3.4,1.5,3.4,3.4s-1.5,3.4-3.4,3.4s-3.4-1.5-3.4-3.4S530.6,56.9,532.5,56.9L532.5,56.9z
					 M532.5,57.5c-1.5,0-2.7,1.2-2.7,2.8c0,1.6,1.2,2.8,2.7,2.8s2.6-1.2,2.6-2.8C535.2,58.7,534,57.5,532.5,57.5L532.5,57.5z
					 M531.9,62.1h-0.7v-3.5c0.4-0.1,0.7-0.1,1.2-0.1c0.6,0,0.9,0.1,1.1,0.3c0.2,0.1,0.4,0.4,0.4,0.7c0,0.4-0.3,0.7-0.7,0.8l0,0
					c0.3,0.1,0.5,0.4,0.6,0.8c0.1,0.5,0.2,0.8,0.3,0.9h-0.7c-0.1-0.1-0.2-0.4-0.3-0.9c-0.1-0.4-0.3-0.5-0.8-0.5h-0.4V62.1z
					 M531.9,60.1h0.4c0.5,0,0.9-0.1,0.9-0.6c0-0.3-0.2-0.6-0.8-0.6c-0.3,0-0.4,0-0.5,0V60.1z"/>
			</g>
		</g>
	</g>
</g>
</svg>
