<?xml version="1.0" encoding="UTF-8"?>
<svg width="207px" height="207px" viewBox="0 0 207 207" version="1.1" xmlns="http://www.w3.org/2000/svg" xmlns:xlink="http://www.w3.org/1999/xlink">
    <!-- Generator: Sketch 43.2 (39069) - http://www.bohemiancoding.com/sketch -->
    <title>wmt-spark-circle</title>
    <desc>Created with Sketch.</desc>
    <defs></defs>
    <g id="Store-Manager-View" stroke="none" stroke-width="1" fill="none" fill-rule="evenodd">
        <g id="wmt-spark-circle">
            <circle id="Oval-2" fill="#017ACD" cx="103.5" cy="103.5" r="103.5"></circle>
            <g id="spark" transform="translate(41.000000, 34.000000)" fill="#FFC220">
                <g id="wmt_h_tag_r_white">
                    <path d="M62.815,47.41 C66.085,47.41 68.777,45.713 69.141,43.513 L72.373,6.996 C72.373,3.386 68.145,0.421 62.825,0.421 C57.515,0.421 53.293,3.386 53.293,6.996 L56.518,43.513 C56.874,45.713 59.569,47.41 62.827,47.41 L62.815,47.41" id="Fill-8"></path>
                    <path d="M43.077,58.819 C44.718,55.99 44.591,52.808 42.864,51.397 L12.848,30.345 C9.73,28.539 5.048,30.713 2.392,35.318 C-0.272,39.917 0.2,45.057 3.317,46.86 L36.549,62.335 C38.63,63.109 41.458,61.627 43.089,58.799 L43.077,58.819" id="Fill-9"></path>
                    <path d="M82.567,58.799 C84.204,61.627 87.023,63.109 89.104,62.335 L122.341,46.86 C125.471,45.057 125.92,39.917 123.274,35.318 C120.607,30.713 115.919,28.539 112.807,30.345 L82.79,51.397 C81.073,52.808 80.946,55.99 82.579,58.819 L82.567,58.799" id="Fill-10"></path>
                    <path d="M62.815,93.023 C66.085,93.023 68.777,94.713 69.141,96.91 L72.373,133.425 C72.373,137.041 68.145,140 62.825,140 C57.515,140 53.293,137.041 53.293,133.425 L56.518,96.91 C56.874,94.713 59.569,93.023 62.827,93.023 L62.815,93.023" id="Fill-11"></path>
                    <path d="M82.567,81.619 C84.204,78.786 87.023,77.314 89.104,78.097 L122.341,93.554 C125.471,95.365 125.92,100.508 123.274,105.111 C120.607,109.701 115.919,111.883 112.807,110.082 L82.79,89.047 C81.073,87.619 80.946,84.439 82.579,81.613 L82.567,81.619" id="Fill-12"></path>
                    <path d="M43.077,81.613 C44.718,84.439 44.591,87.619 42.864,89.047 L12.848,110.082 C9.73,111.883 5.048,109.701 2.392,105.111 C-0.272,100.508 0.2,95.365 3.317,93.554 L36.549,78.097 C38.63,77.314 41.458,78.786 43.091,81.619 L43.077,81.613" id="Fill-13"></path>
                </g>
            </g>
        </g>
    </g>
</svg>
